# xmcd
#
# Track frame offsets: 
#        187
#        18132
#        41327
#        57032
#        78412
#        101950
#        113060
#        127730
#        138320
#        152890
#
# Disc length: 2270 seconds
#
# Revision: 2
# Processed by: cddbd v1.5.2PL0 Copyright (c) Steve Scherf et al.
# Submitted via: ExactAudioCopyFreeDBPlugin 1.0
#
DISCID=7308dc0a
DTITLE=B.B. King - BB King in London
DYEAR=1993
DGENRE=Blues
TTITLE0=Caldonia
TTITLE1=Blue Shadows
TTITLE2=Alexis' Boogie
TTITLE3=We Can't Agree
TTITLE4=Ghetto Woman
TTITLE5=Wet Hayshark
TTITLE6=Part-Time Love
TTITLE7=Power of the Blues
TTITLE8=Ain't Nobody Home
TTITLE9=May I Have a Talk With You
EXTD=
EXTT0=
EXTT1=
EXTT2=
EXTT3=
EXTT4=
EXTT5=
EXTT6=
EXTT7=
EXTT8=
EXTT9=
PLAYORDER=
